<svg xmlns="http://www.w3.org/2000/svg" width="680" height="680" viewBox="0 0 680 680" version="1.1"><path d="M 241.315 44.464 C 234.955 47.230, 234.951 47.264, 235.239 95.221 L 235.500 138.500 237.626 138.803 C 238.796 138.970, 241.271 138.412, 243.126 137.564 C 245.126 136.649, 245.482 136.297, 244 136.701 C 242.625 137.075, 240.375 137.407, 239 137.440 L 236.500 137.500 236.206 98 C 235.907 57.690, 236.257 49.423, 238.213 50.632 C 242.542 53.307, 250.244 49.805, 247.011 46.632 C 246.376 46.009, 245.961 45.950, 246.087 46.500 C 246.567 48.585, 244.781 51.259, 243.861 49.834 C 243.150 48.732, 242.842 48.746, 242.091 49.912 C 241.317 51.114, 240.949 51.092, 239.619 49.761 C 238.235 48.377, 238.227 48.057, 239.551 46.958 C 240.784 45.934, 240.940 45.994, 240.439 47.299 C 239.877 48.763, 241.395 48.965, 246 48.037 C 246.275 47.982, 245.670 47.308, 244.656 46.539 C 243.055 45.326, 245.389 45.129, 262.313 45.045 L 281.814 44.948 283.907 47.609 C 285.943 50.198, 286 51.249, 286 86.435 C 286 124.383, 285.944 124.867, 281.550 125.116 C 279.760 125.217, 279.731 125.292, 281.324 125.704 C 286.810 127.122, 287 125.793, 287 85.981 L 287 49.273 284.518 46.791 C 280.907 43.180, 248.305 41.423, 241.315 44.464 M 160.806 129.718 C 152.560 136.430, 143.521 145.332, 130.697 159.370 C 121.095 169.880, 117.693 173.924, 116.669 176.044 C 116.282 176.845, 114.615 179.300, 112.965 181.500 C 109.591 185.999, 102.801 196.230, 98.697 203 C 93.980 210.779, 93.580 211.441, 92.048 214 C 91.225 215.375, 90.519 216.725, 90.479 217 C 90.440 217.275, 88.087 222.268, 85.252 228.096 C 79.431 240.060, 78.924 241.363, 71.487 263.500 C 66.232 279.144, 60.899 302.014, 59.478 315 C 59.087 318.575, 58.563 322.400, 58.313 323.500 C 57.557 326.834, 57.385 370.426, 58.118 373.052 C 58.493 374.398, 58.855 364.475, 58.921 351 C 59.108 313.081, 64.087 285.403, 76.823 251.500 C 84.831 230.182, 102.371 196.364, 104.028 199.046 C 104.722 200.169, 106.142 197.555, 106.498 194.500 C 106.755 192.292, 108.264 190.045, 109.130 190.580 C 109.636 190.893, 109.985 190.778, 109.906 190.324 C 109.572 188.401, 110.063 186.921, 110.869 187.419 C 112.658 188.524, 119.193 180.906, 118.574 178.438 C 118.250 177.149, 118.506 175.805, 119.151 175.407 C 119.867 174.964, 120.038 175.129, 119.600 175.838 C 119.211 176.468, 119.392 177.775, 120.004 178.742 C 120.729 179.888, 120.970 179.978, 120.695 179 C 120.464 178.175, 120.897 176.267, 121.657 174.760 C 122.418 173.254, 122.919 171.877, 122.770 171.701 C 122.622 171.525, 123.989 169.608, 125.809 167.441 C 127.629 165.273, 128.414 164.661, 127.555 166.080 C 126.696 167.499, 126.332 169.033, 126.746 169.490 C 127.161 169.947, 126.988 170.028, 126.363 169.671 C 125.738 169.314, 124.671 169.692, 123.991 170.511 C 122.403 172.425, 124.039 172.438, 126.559 170.532 C 128.998 168.687, 130.607 168.563, 129.138 170.333 C 128.308 171.334, 128.374 171.667, 129.403 171.667 C 130.157 171.667, 130.658 170.954, 130.515 170.083 C 130.373 169.213, 130.740 167.825, 131.330 167 C 132.217 165.760, 132.160 165.717, 131.002 166.750 C 130.231 167.438, 129.154 168, 128.609 168 C 126.704 168, 131.518 165.063, 133.500 165.016 C 135.160 164.977, 135.245 164.805, 134 164 C 133.175 163.467, 132.893 163.024, 133.372 163.015 C 133.852 163.007, 133.711 162.356, 133.058 161.570 C 132.108 160.426, 132.284 159.918, 133.935 159.035 C 135.522 158.186, 136.015 158.227, 136.063 159.215 C 136.098 159.922, 136.549 159.446, 137.065 158.158 C 137.582 156.869, 137.766 155.430, 137.475 154.960 C 137.184 154.489, 137.844 154.277, 138.940 154.488 C 141.142 154.913, 147.602 147.784, 146.554 146.087 C 146.231 145.565, 146.494 144.813, 147.138 144.415 C 147.939 143.920, 148.041 144.135, 147.463 145.095 C 146.743 146.289, 146.869 146.295, 148.297 145.137 C 149.222 144.387, 149.757 143.416, 149.488 142.980 C 149.218 142.544, 149.898 142.422, 150.999 142.710 C 152.684 143.151, 153 142.742, 153 140.117 C 153 138.402, 153.436 137, 153.969 137 C 154.501 137, 154.684 137.787, 154.374 138.750 C 153.899 140.227, 153.980 140.266, 154.890 139 C 155.849 137.667, 155.972 137.667, 155.991 139 C 156.003 139.825, 156.682 139.216, 157.501 137.646 C 158.320 136.076, 158.754 134.411, 158.467 133.946 C 158.179 133.481, 158.857 132.612, 159.972 132.015 C 161.087 131.418, 162 131.186, 162 131.500 C 162 131.814, 162.939 131.568, 164.086 130.954 C 165.233 130.340, 165.919 129.585, 165.610 129.276 C 165.301 128.968, 164.457 129.117, 163.735 129.607 C 163.013 130.098, 163.790 129.263, 165.461 127.751 C 174.611 119.475, 175.432 121.396, 175.851 152.068 L 176.206 178.041 166.497 188.156 C 105.892 251.298, 84.469 348.826, 114.090 426.737 C 116.283 432.505, 115.945 427.601, 113.616 419.853 C 107.810 400.541, 103.500 378.594, 105.678 379.430 C 106.405 379.709, 107 379.549, 107 379.076 C 107 378.602, 106.292 377.942, 105.426 377.610 C 104.241 377.155, 103.915 375.815, 104.106 372.200 C 104.247 369.557, 104.029 366.855, 103.622 366.197 C 103.197 365.510, 103.418 365, 104.141 365 C 105.120 365, 105.133 364.733, 104.200 363.800 C 102.852 362.452, 102.434 334.532, 103.774 335.360 C 104.200 335.623, 104.449 334.075, 104.329 331.919 C 104.208 329.764, 104.467 328, 104.904 328 C 105.342 328, 105.495 325.956, 105.246 323.458 C 104.997 320.959, 105.269 317.697, 105.850 316.208 C 106.432 314.718, 107.164 311.734, 107.476 309.576 C 107.789 307.417, 108.446 305.167, 108.937 304.576 C 109.428 303.984, 109.868 303.163, 109.915 302.750 C 109.962 302.337, 110.026 301.887, 110.057 301.750 C 110.088 301.613, 110.278 299.475, 110.479 297 C 110.679 294.525, 111.267 291.375, 111.784 290 C 112.301 288.625, 112.601 286.712, 112.450 285.750 C 112.300 284.788, 112.614 284, 113.148 284 C 113.681 284, 113.838 283.547, 113.496 282.993 C 113.153 282.439, 113.527 281.735, 114.326 281.428 C 115.151 281.112, 115.572 280.079, 115.300 279.038 C 115.036 278.029, 115.342 276.229, 115.980 275.037 C 116.618 273.845, 117.309 272.112, 117.515 271.185 C 118.318 267.583, 121.697 259.878, 122.413 260.019 C 122.827 260.100, 123.467 259.832, 123.833 259.423 C 124.200 259.014, 123.938 259.003, 123.250 259.399 C 121.172 260.595, 121.733 259.102, 128.585 245.217 C 133.008 236.254, 135.881 231.586, 137.335 231 C 138.526 230.520, 138.927 230.098, 138.227 230.063 C 136.324 229.969, 139.679 225.237, 142.222 224.430 C 143.562 224.004, 143.866 223.535, 143.106 223.065 C 142.315 222.576, 142.816 221.421, 144.686 219.425 C 146.192 217.816, 147.503 216.014, 147.599 215.420 C 147.695 214.826, 149.567 211.970, 151.759 209.074 C 153.952 206.177, 155.690 203.204, 155.623 202.468 C 155.555 201.731, 160.338 195.959, 166.250 189.640 L 177 178.152 176.994 154.326 C 176.986 118.915, 175.972 117.374, 160.806 129.718 M 592 235.304 C 592 235.549, 593.525 239.096, 595.388 243.185 C 670.307 407.583, 555.069 608.496, 374.250 628.734 L 359 630.441 359 646.520 C 359 663.687, 358.652 665, 354.100 665 C 352.540 665, 351.957 665.351, 352.550 665.933 C 353.895 667.255, 359.422 665.798, 359.890 664 C 360.104 663.175, 360.279 659.688, 360.280 656.250 C 360.280 652.813, 360.667 650, 361.140 650 C 362.562 650, 365.884 653.777, 365.167 654.577 C 364.800 654.986, 365.131 654.955, 365.901 654.508 C 367.073 653.828, 367.034 653.498, 365.667 652.498 C 364.767 651.841, 364.283 651.050, 364.591 650.742 C 364.899 650.435, 364.272 649.904, 363.199 649.563 C 360.197 648.610, 360.012 634.599, 362.980 633.011 C 364.168 632.375, 365 632.322, 365 632.881 C 365 633.405, 364.460 634.013, 363.799 634.234 C 362.865 634.545, 362.865 634.798, 363.799 635.376 C 364.460 635.784, 365 635.615, 365 635 C 365 634.385, 365.520 634.203, 366.155 634.595 C 366.824 635.009, 367.039 634.873, 366.667 634.271 C 365.757 632.797, 370.421 631.229, 378 630.461 C 381.575 630.099, 388.550 628.767, 393.500 627.500 C 398.450 626.234, 405.650 625.067, 409.500 624.906 C 413.350 624.746, 416.950 624.316, 417.500 623.951 C 418.050 623.585, 422.144 622.128, 426.597 620.712 C 435.691 617.822, 454.025 610.248, 461.298 606.376 C 463.937 604.972, 466.773 604.083, 467.600 604.400 C 468.427 604.717, 468.874 604.605, 468.593 604.150 C 468.311 603.695, 469.863 602.321, 472.041 601.097 C 474.218 599.873, 476 599.104, 476 599.388 C 476 599.672, 477.191 598.801, 478.646 597.452 C 480.101 596.104, 481.719 595, 482.242 595 C 482.764 595, 484.498 594.069, 486.096 592.932 C 487.693 591.794, 489.007 591.232, 489.015 591.682 C 489.024 592.132, 489.361 592.047, 489.765 591.494 C 490.715 590.194, 497.680 585, 498.474 585 C 499.498 585, 505.217 580.680, 508.734 577.250 C 510.567 575.462, 512.433 574, 512.881 574 C 513.329 574, 515.901 571.985, 518.598 569.522 C 521.294 567.059, 524.111 565.034, 524.857 565.022 C 525.727 565.008, 525.977 564.382, 525.554 563.280 C 525.191 562.335, 525.206 561.873, 525.587 562.254 C 525.968 562.635, 527.756 561.335, 529.560 559.365 C 531.617 557.119, 533.301 556.068, 534.075 556.546 C 534.812 557.002, 535.054 556.897, 534.675 556.284 C 533.929 555.077, 537.401 550.734, 538.352 551.685 C 538.708 552.042, 539 551.683, 539 550.889 C 539 549.213, 542.550 545.884, 543.415 546.749 C 543.737 547.070, 544 546.887, 544 546.342 C 544 544.754, 554.524 531.132, 560.840 524.546 C 564.029 521.221, 568.663 515.350, 571.139 511.500 C 573.614 507.650, 576.283 503.804, 577.069 502.954 C 578.649 501.248, 580.512 498, 585.972 487.437 C 587.980 483.552, 590.098 480.533, 590.680 480.727 C 591.316 480.939, 591.545 480.071, 591.255 478.552 C 590.926 476.831, 591.285 475.828, 592.380 475.408 C 593.265 475.068, 593.731 474.374, 593.417 473.865 C 593.102 473.356, 594.005 470.961, 595.423 468.542 C 596.840 466.123, 598 463.485, 598 462.679 C 598 461.873, 598.675 460.955, 599.500 460.638 C 600.325 460.322, 601 459.239, 601 458.231 C 601 457.224, 601.563 455.794, 602.250 455.053 C 603.250 453.976, 603.250 453.848, 602.250 454.412 C 601.563 454.800, 601 454.641, 601 454.059 C 601 453.477, 601.450 453, 602 453 C 602.550 453, 602.911 452.663, 602.802 452.250 C 602.693 451.837, 602.874 450.600, 603.203 449.500 C 603.533 448.400, 604.387 445.391, 605.101 442.814 C 605.815 440.237, 606.729 438.333, 607.133 438.582 C 607.537 438.832, 607.844 437.790, 607.816 436.268 C 607.755 432.922, 612.584 419.884, 614.285 418.803 C 615.228 418.204, 615.220 418.027, 614.250 418.015 C 613.563 418.007, 613 416.827, 613 415.393 C 613 413.572, 613.421 412.948, 614.397 413.322 C 615.319 413.676, 615.967 412.953, 616.302 411.198 C 616.780 408.701, 616.725 408.656, 615.405 410.460 C 613.691 412.804, 613.669 411.969, 615.204 403.019 C 616.224 397.068, 618 393.352, 618 397.167 C 618 397.808, 618.289 398.044, 618.643 397.691 C 618.996 397.337, 618.757 396.412, 618.111 395.634 C 617.240 394.584, 617.207 392.710, 617.981 388.360 C 618.555 385.137, 619.079 380.363, 619.145 377.750 C 619.212 375.137, 619.547 373, 619.889 373 C 620.232 373, 620.424 369.962, 620.316 366.250 C 619.137 325.755, 619.137 324, 620.304 323.985 C 621.149 323.974, 621.176 323.754, 620.396 323.235 C 619.126 322.390, 616.522 309.582, 617.348 308.246 C 617.650 307.757, 617.272 306.151, 616.508 304.678 C 615.744 303.205, 615.306 302, 615.535 302 C 615.763 302, 615.494 300.800, 614.936 299.333 C 614.180 297.344, 614.250 296.458, 615.211 295.848 C 616.213 295.213, 616.166 295.012, 615 294.945 C 613.990 294.887, 614.153 294.579, 615.500 294 C 617.168 293.283, 617.215 293.129, 615.781 293.070 C 613.703 292.985, 614.505 290, 616.607 290 C 617.373 290, 618 289.325, 618 288.500 C 618 286.571, 617.009 286.605, 614.113 288.634 C 611.840 290.225, 611.799 290.206, 612.514 287.884 C 612.918 286.573, 612.886 285.845, 612.442 286.266 C 611.998 286.687, 609.958 281.062, 607.907 273.766 C 605.857 266.470, 602.987 257.350, 601.530 253.500 C 600.073 249.650, 598.609 245.600, 598.276 244.500 C 597.346 241.423, 592 233.590, 592 235.304 M 425.500 299.113 C 402.593 302.431, 387.870 323.222, 394.980 342.212 C 397.076 347.811, 402.349 355.015, 404.323 354.978 C 404.970 354.966, 404.519 354.178, 403.320 353.228 C 399.043 349.838, 391.872 327.949, 395.842 330.402 C 396.479 330.796, 397 330.641, 397 330.059 C 397 329.477, 396.550 329, 396 329 C 394.521 329, 394.782 326.597, 396.669 322.831 C 400.465 315.258, 400.989 314.505, 402.384 314.626 C 403.235 314.699, 403.622 314.179, 403.314 313.376 C 402.838 312.136, 404.101 311.520, 406.324 311.906 C 406.778 311.985, 406.875 311.606, 406.540 311.065 C 405.727 309.750, 416.032 303.849, 418.216 304.379 C 419.160 304.608, 419.835 304.316, 419.716 303.732 C 419.397 302.162, 425.433 301.055, 434.500 301.020 C 438.900 301.003, 443.625 300.913, 445 300.821 C 448.862 300.563, 459.069 302.128, 463.376 303.640 C 467.944 305.243, 468 305.249, 468 304.148 C 468 300.611, 438.935 297.167, 425.500 299.113 M 184.119 378.696 C 182.978 379.936, 182.591 379.962, 181.885 378.848 C 181.415 378.106, 181.024 377.853, 181.015 378.285 C 180.974 380.408, 184.456 384, 186.556 384 C 189.188 384, 190.663 385.567, 188.756 386.336 C 188.011 386.636, 188.227 386.874, 189.285 386.921 C 190.790 386.988, 190.892 387.333, 189.935 389.121 C 189.138 390.611, 189.127 391.039, 189.900 390.562 C 190.577 390.143, 191.006 390.769, 191.015 392.191 C 191.026 393.837, 191.273 394.117, 191.876 393.166 C 192.557 392.092, 192.840 392.141, 193.329 393.416 C 193.664 394.287, 193.510 395, 192.988 395 C 192.466 395, 192.194 396.333, 192.384 397.962 C 192.574 399.591, 192.366 401.053, 191.923 401.212 C 191.480 401.370, 190.889 402.777, 190.609 404.338 C 190.216 406.530, 190.430 407.049, 191.550 406.619 C 192.523 406.246, 193 406.730, 193 408.090 C 193 409.206, 192.555 409.843, 192.011 409.507 C 191.418 409.140, 191.293 409.616, 191.699 410.698 C 192.314 412.338, 192.206 412.366, 190.495 411 C 189.402 410.127, 188.930 410.023, 189.367 410.750 C 189.780 411.438, 189.656 412, 189.090 412 C 188.525 412, 188.322 412.675, 188.638 413.500 C 189.391 415.462, 187.603 415.431, 185.962 413.454 C 185.257 412.604, 184.077 412.140, 183.340 412.423 C 182.603 412.706, 182 412.475, 182 411.910 C 182 411.344, 181.543 411.165, 180.984 411.510 C 180.425 411.856, 180.274 412.634, 180.648 413.239 C 181.103 413.975, 180.695 414.099, 179.414 413.611 C 177.879 413.026, 177.747 413.131, 178.750 414.141 C 180.577 415.981, 180.301 416.500, 177.500 416.500 C 175.951 416.500, 174.994 415.929, 174.985 415 C 174.971 413.667, 174.862 413.667, 174 415 C 173.128 416.349, 172.570 415.725, 172.882 413.750 C 172.947 413.337, 172.380 413, 171.622 413 C 170.865 413, 169.672 412.310, 168.972 411.467 C 167.860 410.126, 165.442 409.755, 166.094 411.025 C 166.228 411.286, 165.821 412.465, 165.190 413.645 C 164.290 415.327, 164.340 416.037, 165.424 416.937 C 166.474 417.809, 166.930 417.774, 167.324 416.792 C 167.727 415.787, 167.860 415.805, 167.921 416.872 C 167.986 417.999, 168.278 418.014, 169.551 416.958 C 170.852 415.878, 171.182 415.979, 171.602 417.586 C 172.375 420.541, 180 423.588, 180 420.941 C 180 420.359, 180.450 420.160, 181 420.500 C 181.550 420.840, 182.563 420.767, 183.250 420.337 C 185.145 419.154, 187 419.060, 187 420.148 C 187 420.681, 187.412 420.864, 187.915 420.553 C 188.418 420.242, 189.003 420.508, 189.215 421.144 C 189.427 421.780, 191.716 416.089, 194.302 408.496 L 199.004 394.691 196.907 393.222 C 195.382 392.154, 194.924 390.974, 195.228 388.901 C 195.562 386.623, 195.380 386.270, 194.323 387.147 C 193.328 387.973, 193 387.881, 193 386.776 C 193 383.479, 189.853 378.912, 187.989 379.503 C 186.855 379.864, 186.037 379.536, 185.831 378.640 C 185.546 377.399, 185.306 377.407, 184.119 378.696 M 529.836 440 C 527.766 489.363, 474.249 517.487, 409.591 503.191 C 401.187 501.333, 396.591 501, 379.341 501 L 359 501 359 544.500 L 359 588 362.750 587.882 C 366.384 587.767, 366.407 587.743, 363.500 587.121 C 360.604 586.500, 358.383 578, 361.117 578 C 361.576 578, 361.512 576.846, 360.975 575.435 C 359.684 572.038, 359.672 563.933, 360.962 565.972 C 361.746 567.212, 362.008 567.143, 362.626 565.532 C 363.077 564.358, 362.902 563.467, 362.174 563.225 C 361.521 563.007, 361.242 562.418, 361.553 561.915 C 361.864 561.412, 361.615 561, 361 561 C 360.385 561, 360.114 560.624, 360.398 560.164 C 360.683 559.705, 360.974 554.417, 361.045 548.414 C 361.163 538.541, 361.381 537.327, 363.338 535.683 L 365.500 533.866 363.250 534.968 C 361.130 536.007, 361 535.863, 361 532.476 C 361 529.867, 361.343 529.088, 362.250 529.633 C 363.190 530.198, 363.235 530.027, 362.429 528.942 C 361.119 527.178, 360.698 504.305, 361.961 503.524 C 362.456 503.218, 363.144 503.425, 363.490 503.984 C 363.835 504.543, 364.568 505, 365.118 505 C 365.668 505, 365.855 504.575, 365.534 504.055 C 365.184 503.488, 368.578 503.104, 374.009 503.095 C 379.543 503.086, 382.837 503.454, 382.475 504.040 C 382.145 504.575, 383.263 505, 385 505 C 386.824 505, 387.862 504.585, 387.500 504 C 386.592 502.531, 393.339 502.758, 394.947 504.250 C 396.027 505.253, 396.149 505.245, 395.563 504.210 C 395.030 503.268, 395.462 503.055, 397.166 503.419 C 398.450 503.694, 401.311 504.134, 403.525 504.398 C 405.738 504.662, 408.805 505.356, 410.340 505.939 C 411.874 506.523, 414.915 507, 417.096 507 C 419.729 507, 421.260 507.513, 421.648 508.526 C 422.086 509.666, 422.567 509.774, 423.555 508.954 C 424.335 508.307, 426.441 508.117, 428.689 508.490 C 430.785 508.838, 437.337 509.089, 443.250 509.047 C 451.280 508.991, 454.004 509.291, 454.015 510.236 C 454.026 511.098, 454.339 511.023, 455 510 C 455.533 509.175, 455.976 508.893, 455.985 509.372 C 455.993 509.852, 456.656 509.701, 457.458 509.035 C 458.271 508.360, 460.446 508.032, 462.378 508.292 C 464.283 508.549, 466.316 508.284, 466.897 507.703 C 467.478 507.122, 470.213 506.614, 472.976 506.574 C 475.738 506.533, 477.999 506.163, 477.999 505.750 C 478 505.337, 478.825 505, 479.833 505 C 480.842 505, 481.980 504.687, 482.362 504.304 C 483.045 503.622, 485.275 502.989, 487.750 502.775 C 488.438 502.715, 489 502.398, 489 502.069 C 489 501.741, 491.250 500.404, 494 499.098 C 496.750 497.793, 499 496.385, 499 495.971 C 499 495.556, 500.025 494.960, 501.277 494.645 C 502.529 494.331, 505.454 492.447, 507.777 490.459 C 510.100 488.471, 512.045 487.217, 512.100 487.672 C 512.155 488.127, 512.532 487.375, 512.938 486 C 513.345 484.625, 514.247 483.628, 514.944 483.785 C 516.887 484.222, 519.376 481.850, 517.919 480.950 C 516.030 479.782, 517.779 478.152, 520.591 478.460 C 522.878 478.712, 523.002 478.574, 521.683 477.254 C 520.363 475.935, 520.517 475.254, 523.027 471.296 C 524.586 468.838, 526.677 464.560, 527.673 461.789 C 528.669 459.018, 530.088 456.520, 530.826 456.236 C 531.772 455.874, 531.835 455.516, 531.042 455.026 C 530.230 454.524, 530.200 453.097, 530.933 449.915 C 532.093 444.885, 532.161 434.714, 531.060 431 C 530.591 429.418, 530.141 432.723, 529.836 440 M 302.054 612.078 C 301.982 620.548, 301.489 627.911, 300.959 628.441 C 297.843 631.557, 241.955 616.790, 228.615 609.324 C 227.147 608.503, 226.318 608.682, 224.865 610.135 C 222.619 612.381, 222.573 612.667, 224.456 612.667 C 225.257 612.667, 225.699 612.323, 225.440 611.902 C 224.336 610.117, 227.092 610.142, 230.655 611.951 C 237.646 615.499, 246.019 618.993, 249.787 619.934 C 251.829 620.444, 257.550 622.024, 262.500 623.445 C 272.917 626.435, 271.780 626.171, 287.993 629.356 C 304.774 632.653, 303.818 633.529, 303.918 614.758 C 303.962 606.366, 303.591 598.865, 303.091 598.090 C 302.524 597.207, 302.135 602.443, 302.054 612.078" stroke="none" fill="#cddee8" fill-rule="evenodd"/><path d="M 358.500 12.460 C 357.950 12.661, 356.340 13.079, 354.921 13.389 C 353.503 13.698, 351.865 15.002, 351.280 16.284 C 350.110 18.853, 349.024 117.357, 350.153 118.487 C 350.510 118.844, 355.432 119.571, 361.089 120.104 C 366.747 120.636, 377.029 122.179, 383.938 123.532 C 390.847 124.885, 397.299 125.994, 398.275 125.996 C 399.957 126, 400.035 123.136, 399.775 71.527 L 399.500 17.054 397.225 14.777 C 395.111 12.662, 363.178 10.751, 358.500 12.460 M 244.656 46.539 C 245.670 47.308, 246.275 47.982, 246 48.037 C 241.395 48.965, 239.877 48.763, 240.439 47.299 C 240.940 45.994, 240.784 45.934, 239.551 46.958 C 238.227 48.057, 238.235 48.377, 239.619 49.761 C 240.949 51.092, 241.317 51.114, 242.091 49.912 C 242.842 48.746, 243.150 48.732, 243.861 49.834 C 244.781 51.259, 246.567 48.585, 246.087 46.500 C 245.961 45.950, 246.376 46.009, 247.011 46.632 C 250.214 49.776, 242.553 53.314, 238.271 50.667 C 236.335 49.471, 236 56.262, 236 96.656 C 236 144.037, 234.382 139.954, 250.789 133.979 C 257.230 131.633, 267.225 128.539, 273 127.104 C 278.775 125.669, 284.063 124.132, 284.750 123.689 C 287.263 122.067, 286.474 50.873, 283.907 47.609 L 281.814 44.948 262.313 45.045 C 245.389 45.129, 243.055 45.326, 244.656 46.539 M 467.476 85.396 C 462.238 87.678, 462 89.310, 462 122.972 L 462 153.851 471.750 160.578 C 483.992 169.024, 494.732 177.610, 502.625 185.259 C 513.163 195.471, 512.506 198.394, 512.463 141.484 C 512.423 87.297, 512.441 87.500, 507.497 85.434 C 502.856 83.495, 471.906 83.466, 467.476 85.396 M 161.651 130.696 C 154.484 136.372, 153.054 137.975, 153.029 140.367 C 153.005 142.718, 152.647 143.141, 151.034 142.719 C 149.904 142.424, 149.160 142.673, 149.284 143.307 C 149.403 143.913, 149.050 144.468, 148.500 144.541 C 146.407 144.817, 144 146.255, 144 147.229 C 144 147.815, 144.635 147.718, 145.500 147 C 147.964 144.955, 147.206 146.952, 143.967 151.042 C 141.999 153.526, 140.286 154.748, 139.091 154.518 C 138.078 154.322, 137.264 154.689, 137.282 155.331 C 137.384 158.966, 136.939 160.451, 136.129 159.174 C 135.471 158.136, 134.659 158.390, 132.394 160.339 C 130.802 161.709, 129.845 163.176, 130.267 163.598 C 130.688 164.021, 131.588 163.768, 132.267 163.037 C 133.257 161.969, 133.223 161.864, 132.095 162.508 C 131.147 163.049, 130.926 162.929, 131.415 162.138 C 131.813 161.494, 132.564 161.231, 133.085 161.553 C 133.606 161.875, 133.797 162.519, 133.510 162.984 C 133.223 163.449, 133.553 164.057, 134.244 164.336 C 134.935 164.614, 134.600 164.892, 133.500 164.953 C 131.481 165.065, 126.770 168, 128.609 168 C 129.154 168, 130.231 167.438, 131.002 166.750 C 132.160 165.717, 132.217 165.760, 131.330 167 C 130.740 167.825, 130.373 169.213, 130.515 170.083 C 130.658 170.954, 130.157 171.667, 129.403 171.667 C 128.374 171.667, 128.308 171.334, 129.138 170.333 C 130.607 168.563, 128.998 168.687, 126.559 170.532 C 124.039 172.438, 122.403 172.425, 123.991 170.511 C 124.671 169.692, 125.738 169.314, 126.363 169.671 C 126.988 170.028, 127.161 169.947, 126.746 169.490 C 126.332 169.033, 126.696 167.499, 127.555 166.080 C 128.414 164.661, 127.629 165.273, 125.809 167.441 C 123.989 169.608, 122.622 171.525, 122.770 171.701 C 122.919 171.877, 122.418 173.254, 121.657 174.760 C 120.897 176.267, 120.464 178.175, 120.695 179 C 120.970 179.978, 120.729 179.888, 120.004 178.742 C 119.392 177.775, 119.211 176.468, 119.600 175.838 C 120.038 175.129, 119.867 174.964, 119.151 175.407 C 118.506 175.805, 118.250 177.149, 118.574 178.438 C 119.021 180.219, 118.295 181.589, 115.424 184.377 C 110.800 188.868, 110.012 189, 113.202 184.750 C 116.176 180.789, 117.259 179, 116.684 179 C 115.764 179, 105.906 194.040, 106.353 194.762 C 106.612 195.182, 106.205 196.644, 105.448 198.013 C 104.690 199.381, 104.055 200.133, 104.035 199.684 C 104.016 199.236, 104.466 197.998, 105.035 196.934 C 105.605 195.870, 105.844 195, 105.568 195 C 105.292 195, 102.480 199.387, 99.320 204.750 C 36.377 311.562, 46.873 440.662, 126.128 534.500 C 165.651 581.295, 228.780 617.319, 289.248 627.580 C 302.634 629.852, 301.679 631.232, 302.248 608.780 C 302.809 586.683, 303.332 587.780, 291.126 585.464 C 111.450 551.380, 39.088 320.898, 166.415 188.242 L 176.042 178.212 175.917 155.856 C 175.716 119.768, 175.634 119.623, 161.651 130.696 M 334.500 163.434 C 333.950 163.655, 331.731 164.134, 329.569 164.497 C 327.081 164.916, 326.103 165.446, 326.904 165.940 C 327.810 166.501, 327.578 166.877, 326.083 167.268 C 324.936 167.568, 324.249 167.405, 324.558 166.907 C 324.866 166.408, 324.641 166, 324.059 166 C 323.477 166, 323 166.642, 323 167.427 C 323 168.955, 317.267 172.283, 315.992 171.495 C 315.571 171.235, 314.613 171.778, 313.863 172.703 C 312.926 173.859, 312.890 174.149, 313.750 173.633 C 314.438 173.220, 315 173.321, 315 173.857 C 315 174.394, 313.726 175.396, 312.169 176.086 C 299.026 181.903, 299.287 211.129, 312.600 224.443 C 346.033 257.875, 395.567 209.174, 364.104 173.806 C 357.654 166.555, 341.134 160.768, 334.500 163.434 M 555.822 216.377 C 541.924 228.229, 539.072 231.309, 540.932 232.458 C 548.054 236.860, 565.819 283.290, 571.117 311.350 C 595.864 442.423, 486.208 586.964, 361.250 587.982 L 359 588 359 544.500 L 359 501 379.341 501 C 396.591 501, 401.187 501.333, 409.591 503.191 C 499.430 523.055, 568.242 448.973, 512.465 392.436 C 497.303 377.068, 485.865 373.098, 437.773 366.512 C 407.474 362.363, 393 351.206, 393 332 C 393 297.321, 447.941 286.151, 484.117 313.475 L 491.500 319.052 495.500 314.720 C 497.700 312.338, 503.981 305.511, 509.457 299.550 L 519.415 288.712 513.683 283.376 C 448.634 222.829, 334.269 267.495, 350.768 347.005 C 358.414 383.852, 384.173 402.562, 436 408.914 C 473.234 413.477, 483.920 419.137, 486.568 435.700 C 491.561 466.923, 424.315 476.921, 391.118 449.892 C 384.779 444.731, 384.720 444.708, 382.118 446.403 C 367.277 456.075, 369.544 459.303, 347.420 397 C 343.417 385.725, 336.023 365.025, 330.990 351 C 325.956 336.975, 318.544 316.050, 314.518 304.500 C 301.707 267.750, 300.524 264.829, 297.900 263.469 C 285.805 257.201, 252.886 258.114, 246.093 264.907 C 244.142 266.858, 241.606 273.435, 230.444 305.500 C 226.424 317.050, 217.892 341.350, 211.484 359.500 C 199.955 392.157, 192.693 412.921, 176.507 459.500 C 171.920 472.700, 167.229 486.158, 166.083 489.407 C 164.938 492.655, 164 496.376, 164 497.675 L 164 500.037 187.250 499.768 L 210.500 499.500 221.623 466.500 C 227.741 448.350, 233.242 432.262, 233.849 430.750 L 234.950 428 272.877 428 L 310.804 428 311.816 430.750 C 312.372 432.262, 315.679 441.150, 319.164 450.500 L 325.500 467.500 326 566 L 326.500 664.500 341.365 664.777 C 360.398 665.133, 359 666.574, 359 646.598 L 359 630.441 374.250 628.734 C 570.008 606.824, 682.626 377.819, 579.187 212 C 572.626 201.482, 573.475 201.323, 555.822 216.377 M 268.756 326.654 C 264.355 338.910, 248.998 385.232, 248.999 386.250 C 249 386.663, 259.800 387, 273 387 C 286.200 387, 297 386.700, 297 386.334 C 297 385.968, 295.216 380.906, 293.036 375.084 C 290.856 369.263, 285.297 353.769, 280.682 340.654 L 272.293 316.808 268.756 326.654 M 143.962 350.256 C 120.766 364.118, 132.067 398.695, 159.161 396.756 C 191.136 394.469, 189.074 347, 157 347 C 150.218 347, 148.832 347.346, 143.962 350.256" stroke="none" fill="#21476f" fill-rule="evenodd"/></svg>